<svg width="416" height="132" viewBox="0 0 416 132" fill="none" xmlns="http://www.w3.org/2000/svg">
<path fill-rule="evenodd" clip-rule="evenodd" d="M364.369 125.675C370.045 127.165 375.934 127.91 382.037 127.91C389.416 127.91 395.518 126.81 400.343 124.61C405.239 122.411 408.893 119.501 411.306 115.883C413.789 112.193 415.031 108.184 415.031 103.856C415.031 99.953 414.251 96.7245 412.69 94.1701C411.2 91.5448 409.213 89.4516 406.729 87.8905C404.246 86.2585 401.479 84.9813 398.427 84.0589C395.447 83.0655 392.432 82.2495 389.381 81.6109C386.4 80.9723 383.633 80.3692 381.079 79.8015C378.595 79.1629 376.573 78.3824 375.012 77.46C373.522 76.4666 372.777 75.1539 372.777 73.5219C372.777 72.2447 373.167 71.1094 373.948 70.1161C374.728 69.1227 376.005 68.3422 377.779 67.7745C379.553 67.1359 381.895 66.8166 384.804 66.8166C388.068 66.8166 391.438 67.3133 394.915 68.3067C398.392 69.2291 401.904 70.6482 405.452 72.564L411.945 56.9182C408.255 54.7896 404.033 53.1931 399.279 52.1287C394.596 50.9934 389.806 50.4258 384.91 50.4258C377.602 50.4258 371.5 51.5256 366.604 53.7252C361.708 55.9249 358.018 58.8341 355.535 62.4528C353.122 66.0716 351.916 70.1161 351.916 74.5863C351.916 78.5598 352.696 81.8593 354.257 84.4846C355.818 87.039 357.841 89.1322 360.324 90.7642C362.808 92.3253 365.539 93.6025 368.52 94.5959C371.571 95.5892 374.586 96.4052 377.566 97.0438C380.618 97.6824 383.385 98.321 385.868 98.9596C388.352 99.5983 390.374 100.414 391.935 101.408C393.496 102.401 394.277 103.749 394.277 105.452C394.277 106.658 393.851 107.723 392.999 108.645C392.219 109.497 390.942 110.206 389.168 110.774C387.394 111.271 385.052 111.519 382.143 111.519C377.815 111.519 373.451 110.845 369.052 109.497C364.723 108.077 360.892 106.304 357.557 104.175L350.639 119.714C354.186 122.127 358.763 124.114 364.369 125.675ZM256.858 89.169C256.858 110.017 239.958 126.918 219.109 126.918C198.261 126.918 181.36 110.017 181.36 89.169C181.36 68.3207 198.261 51.4199 219.109 51.4199C239.958 51.4199 256.858 68.3207 256.858 89.169ZM237.601 89.1685C237.601 99.3806 229.322 107.659 219.11 107.659C208.898 107.659 200.619 99.3806 200.619 89.1685C200.619 78.9563 208.898 70.6777 219.11 70.6777C229.322 70.6777 237.601 78.9563 237.601 89.1685ZM0.96875 51.7734V126.564H20.5094V87.9924L39.6229 119.192H49.0196L68.2659 86.8822L68.4534 126.564H87.8873L87.6737 51.7734H70.2687L44.6841 94.9845L18.3738 51.7734H0.96875ZM267.684 126.564V51.7734H303.049C311.311 51.7734 318.577 53.3049 324.845 56.3677C331.113 59.4305 335.992 63.7399 339.482 69.2957C343.044 74.8516 344.824 81.4759 344.824 89.1686C344.824 96.7901 343.044 103.414 339.482 109.041C335.992 114.597 331.113 118.907 324.845 121.97C318.577 125.032 311.311 126.564 303.049 126.564H267.684ZM288.839 109.683H302.194C306.468 109.683 310.172 108.899 313.306 107.332C316.511 105.694 319.004 103.343 320.785 100.28C322.565 97.1462 323.456 93.4423 323.456 89.1686C323.456 84.8236 322.565 81.1197 320.785 78.0569C319.004 74.9941 316.511 72.6791 313.306 71.1121C310.172 69.4738 306.468 68.6547 302.194 68.6547H288.839V109.683Z" fill="black"/>
<path d="M143.059 124.827C139.177 128.583 133.016 128.583 129.134 124.827C126.915 122.68 123.828 121.677 120.77 122.109C115.422 122.866 110.438 119.245 109.505 113.925C108.971 110.883 107.063 108.257 104.335 106.809C99.564 104.278 97.6602 98.4188 100.032 93.5665C101.389 90.7917 101.389 87.5462 100.032 84.7714C97.6602 79.919 99.564 74.0599 104.335 71.5285C107.063 70.0809 108.971 67.4552 109.505 64.4131C110.438 59.0932 115.422 55.4721 120.77 56.2285C123.828 56.6611 126.915 55.6581 129.134 53.5107C133.016 49.7553 139.177 49.7553 143.059 53.5107C145.279 55.6581 148.365 56.6611 151.424 56.2285C156.771 55.4721 161.755 59.0932 162.689 64.4131C163.222 67.4552 165.13 70.0809 167.858 71.5285C172.629 74.0599 174.533 79.919 172.161 84.7714C170.805 87.5462 170.805 90.7917 172.161 93.5665C174.533 98.4188 172.629 104.278 167.858 106.809C165.13 108.257 163.222 110.883 162.689 113.925C161.755 119.245 156.771 122.866 151.424 122.109C148.365 121.677 145.279 122.68 143.059 124.827Z" fill="#F5C71E"/>
<path d="M173.196 35.9062V4.40625L180.531 4.40625L193.581 25.8262L189.711 25.8262L202.401 4.40625H209.736L209.826 35.9063H201.636L201.546 16.8712H202.941L193.446 32.8012L189.486 32.8012L179.721 16.8712L181.431 16.8712V35.9062H173.196ZM224.995 35.9063V22.5862L227.065 27.9412L212.98 4.40625H222.385L232.555 21.4612L227.11 21.4612L237.325 4.40625H245.965L231.925 27.9412L233.905 22.5862V35.9063H224.995Z" fill="black"/>
</svg>
